<?xml version="1.0" encoding="utf-8"?>
<!-- Generator: Adobe Illustrator 21.0.0, SVG Export Plug-In . SVG Version: 6.00 Build 0)  -->
<svg version="1.1" xmlns="http://www.w3.org/2000/svg" xmlns:xlink="http://www.w3.org/1999/xlink" x="0px" y="0px"
	 viewBox="0 0 640 200" style="enable-background:new 0 0 640 200;" xml:space="preserve">
<style type="text/css">
	.st0{fill:#FFFFFF;}
	.st1{fill:none;}
	.st2{fill:#28839F;}
	.st3{font-family:'AvenirNext-Regular';}
	.st4{font-size:26.2164px;}
	.st5{fill:#9ED8D7;}
	.st6{fill:#B1B0D7;}
	.st7{fill:#525E64;}
	.st8{fill:#71C8BC;}
	.st9{fill:#D2D9DD;}
</style>
<g id="white_background">
	<path class="st0" d="M628,200H12c-6.6,0-12-5.4-12-12V12C0,5.4,5.4,0,12,0h616c6.6,0,12,5.4,12,12v176C640,194.6,634.6,200,628,200
		z"/>
</g>
<g id="Layer_1">
	<rect x="186.3" y="165.4" class="st1" width="435.7" height="23.7"/>
	<text transform="matrix(0.9048 0 0 1 186.3052 185.1807)" class="st2 st3 st4">Learning Programs with a Social Impact</text>
	<g>
		<path class="st5" d="M85,109.2c0,0,0-0.1-0.1-0.1"/>
		<path class="st6" d="M151.7,130.3"/>
		<path class="st7" d="M208.1,96.7c-0.2-0.2-0.4-0.4-0.6-0.6h0.5C208.1,96.3,208.1,96.4,208.1,96.7z"/>
		<path class="st8" d="M114.1,130.9c0,0.1-0.1,0.1-0.1,0.1C114,131,114.1,130.9,114.1,130.9z"/>
		<path class="st6" d="M159.2,48.9C159.3,48.9,159.3,48.9,159.2,48.9C159.3,48.9,159.3,48.9,159.2,48.9
			C159.3,48.9,159.3,48.9,159.2,48.9C159.3,48.9,159.3,48.9,159.2,48.9"/>
		<path class="st7" d="M208.5,97.1h-0.4c0-0.2,0-0.3,0-0.5C208.2,96.8,208.4,97,208.5,97.1z"/>
		<g>
			<path class="st5" d="M95.8,118.6C95.8,118.6,95.8,118.5,95.8,118.6"/>
		</g>
		<g>
			<path class="st6" d="M163.1,132.5"/>
		</g>
		<g>
			<path class="st8" d="M125.2,132.9c0,0-0.1,0.1-0.1,0.1C125.1,132.9,125.1,132.9,125.2,132.9z"/>
		</g>
		<g>
			<path class="st6" d="M170.4,39.8C170.4,39.8,170.4,39.8,170.4,39.8C170.4,39.8,170.4,39.8,170.4,39.8
				C170.4,39.8,170.4,39.8,170.4,39.8C170.4,39.8,170.4,39.8,170.4,39.8"/>
		</g>
		<path class="st9" d="M189.1,111.9c-0.3,2.3-0.7,4.2-1.1,5.6c-0.4,1.5-0.8,2.8-1.6,4.5c-0.4,0.9-1.1,2.4-2.3,3.9
			c-2.2,2.8-3.6,2.7-3.9,4.4c-0.3,1.7,1.1,1.9,0.9,4.1c-0.1,1.4-0.8,2.5-0.5,4.5c0,0.3,0.1,0.5,0.1,0.6c0.4,1.7,1.2,2.8,1.8,3.5
			c-3,5-7.1,11-12.8,16.9c-3.2,3.4-6.4,6.1-9.4,8.4c-1.5-2.1-1.5-3.5-1.4-4.4c0.2-0.8,0.6-1.2,0.5-2.2c0-0.9-0.5-1.6-0.9-2.1
			c-0.9-1.3-1.5-1.2-2.2-2.2c-0.8-1.1-0.9-2.3-1-3c-0.1-0.7-0.4-3,0.7-4.6c0.8-1.2,1.4-0.9,2-2.2c0.5-1.2,0.3-2.5,0.2-3.1
			c-0.1-0.6-0.3-2-1.2-2.9c-0.9-0.8-1.4-0.4-1.9-1.2c-0.6-1,0.3-2.2-0.2-3c-0.7-1.1-2.7,0.3-3.4-0.7c-0.6-0.9,0.8-2.3,0.8-5.5
			c0-1.6-0.1-3.1-0.9-3.7c-0.9-0.7-1.9,0.4-2.9-0.4c-0.8-0.6-0.6-1.6-1.4-1.9c-0.8-0.3-1.6,0.4-1.7,0.5c-1.1,0.9-0.7,2.2-1.6,3.1
			c-0.6,0.6-1.8,0.6-4.2,0.5c-2.2-0.1-3.2-0.1-4.3-0.6c-0.2-0.1-1.2-0.6-2.6-1.8c-0.9-0.8-3.6-3.4-4.9-7.9c-0.4-1.5-0.5-3.4-0.6-7.1
			c-0.2-4.8-0.3-7.3,0.4-9.1c0.3-0.7,0.6-1.4,0.6-1.4c0.8-1.5,1.7-2.2,2.3-2.8c0.7-0.8,1.4-2.2,1.2-4.6c0.2-0.4,0.4-0.9,0.7-1.3
			c0.2-0.3,0.4-0.7,0.5-1c0-0.1,0.1-0.2,0.2-0.3c0.6-0.6,1.5-0.4,2.2-0.6c1.4-0.5,0.8-2.1,2.3-2.6c0.7-0.3,1.1,0,2.8-0.1
			c1.1-0.1,2-0.3,2.6-0.5c1.9,0,3.5,0,4.6-0.1c1.2-0.1,2.1-0.2,2.4,0.2c0.5,0.6-0.8,1.5-0.3,2.1c0.3,0.4,1,0.2,3.2,0.5
			c1.9,0.2,2.5,0.5,2.9,0.2c0.5-0.3,0-0.8,0.3-1.5c0.3-0.6,0.9-0.9,3.4-1.9c2.8-1.2,3.2-1.4,3.7-1.2c0.1,0.1,0.8,0.4,0.7,2
			c-0.8-0.2-2.2-0.5-2.4-0.3c-0.2,0.3,1.1,1,1.7,1.4c0.9,0.5,2.3,1.3,4.2,1.9c0.2,0.2,0.5,0.5,0.9,0.8c0.3,0.3,0.6,0.4,0.7,0.4
			c0.4,0.2,1.2,0.9,2.8,2.6c0.2,0.2,0.4,0.4,0.6,0.6c0,0.2,0,0.3,0,0.5c0.1,1.2,0.4,2.8,1,4.5c0.8,2.2,1.5,2.8,3.2,5.6
			c3.1,5.3,2.7,6.6,4.4,7.6C182,114.2,184.4,114.7,189.1,111.9z"/>
		<path class="st9" d="M81,133.3C81,133.3,81,133.3,81,133.3c-0.1-0.1-1.6,0.2-2.3,1c-0.6,0.6-0.3,1-0.6,3c-0.2,1.6-0.4,1.3-0.6,2.9
			c-0.1,1.2-0.1,2.1-0.5,3c-0.1,0.3-0.5,0.9-1.2,1.3c0,0,0,0-0.1,0c-1.1,0.6-2.9,0.4-2.9,0.4c-3-0.2-3.7-0.7-4.3-0.3
			c-0.7,0.5-0.4,1.8-0.3,2c0.1,0.6,0.5,1,0.5,2c0,0.2,0,0.3,0,0.4c-0.2,0.9-1,1.5-1.6,2c-0.2,0.1-0.3,0.2-0.5,0.4
			c-0.3,0.2-0.4,0.2-0.8,0.4c0,0-0.2,0.1-0.5,0.3c-1,0.6-2,2-2.3,2.3c-0.3,0.3-0.5,0.6-0.7,0.9c-0.2,0.3-0.3,0.4-0.5,0.8
			c0,0-0.2,0.3-0.4,0.6c-0.6,0.7-1.7,1.8-3.1,2.9c-0.2,0.1-0.5,0.3-0.9,0.6c-0.5,0.3-0.7,0.4-1.1,0.7c-0.4,0.2-0.8,0.5-1.2,0.8
			c-1.8,1.2-3.2,2.6-4.3,3.8c-2.7-2.6-5.4-5.2-8.2-7.7c0.4-2.4,0.7-3.6,0.9-4.3c0.1-0.2,0.3-0.9,0.4-1.8c0-0.3,0.1-0.5,0.1-0.8
			c0-0.5,0-1.1-0.1-1.9c0,0-0.5-4.6,1.2-7.3c0,0,0.1-0.1,0.2-0.3c0.6-1,1.3-2.1,1.1-3.2c-0.1-0.7-0.6-1.2-1.6-2.2
			c-0.4-0.4-0.7-0.7-1.2-1.1c-1.2-1-1.9-1.4-2.3-1.7c-0.8-0.7-1.1-1.3-2.1-4.1c-0.9-2.5-1.3-3.7-1.7-5c0,0-1.4-4.3-0.5-5.9
			c0.2-0.3,0.4-0.5,0.4-0.5c0.4-0.2,0.9-0.6,1.4-1c0.5-0.5,0.9-1.1,1.1-1.4c0.2-0.2,0.5-0.5,0.7-0.7c1.7-3.8,2.5-5.1,3-5.4
			c0.1,0,0.3-0.2,0.5-0.4c-0.2-0.8-0.6-1.2-0.9-1.4c-0.7-0.4-1.4,0.1-2.3-0.5c-0.7-0.4-1-1-1.2-1.5c-0.8-1.7-0.2-2.5-0.8-3.2
			c-0.9-0.9-2.4,0.1-3.1-0.8c-0.5-0.6,0.1-1.3-0.4-2.1c-0.6-1.1-2.3-0.4-4.6-1.3c-1.1-0.4-3-1-3.5-2.6c-0.2-0.7-0.1-1.4,0-1.9
			c-0.6-1.8-1.1-3.5-1.6-5.3c-0.4-4.7-0.8-6.3-1.2-6.4c-0.8,0-1.6,7.8-1.9,7.8c-0.1,0,0-1.1,0-2.9c-0.1-3.5-0.1-5.3-0.3-6
			c-0.2-0.9-0.4-1.6-0.7-2c-0.5-0.9-1-1.2-1.4-2.1c0,0-0.1-0.2-0.1-0.5c-0.1-0.3-0.2-0.6-0.3-1c0,0-0.2-0.9-0.2-1.5
			c-0.1-1.3,0.4-1.9,0.9-3.7c0.3-1.2,0.2-1.2,0.5-2.6c0.4-1.7,0.9-3,1.5-4.6c1.7-4.1,2.5-6.2,3.5-8.2c2.2-4.5,4.3-7.7,5.7-9.6
			c0.8-1.1,1.7-2.5,2.9-4c1-1.3,1.6-2,2.6-3.2c3-3.5,3.5-3.7,3.8-3.6c0.9,0.3,0.4,2.2,1.9,3.6c0.9,0.9,2.3,1.3,2.8,0.8
			c0.3-0.3,0.1-0.7,0.4-1.1c0.3-0.4,0.9-0.7,1.2-0.5c0.6,0.2,0.3,1.1,0.9,1.8c0.6,0.9,1.8,1,3,1.2c1.9,0.2,2.1-0.4,3.3,0
			c0.9,0.4,1.3,1,2.4,1c0.3,0,0.8,0,1.1-0.3c0.5-0.5,0.5-1.4,0.4-1.9c-0.1-2.9-0.2-4.3,0.3-5.3c0.8-1.9,3.1-2.3,3.3-2.3
			c2.7-0.5,4.6,1.9,4.8,2.1c0.7,0.9,0.3,1,1.5,4.1c1,2.7,1.7,3.5,1.2,4.5c-0.5,1-1.6,1.4-1.5,2.1c0.1,0.7,1.3,0.5,2,1.5
			c0.8,1.1,0.4,3.3-0.6,4.1c-0.8,0.7-1.6,0.1-2.2,0.8c-0.6,0.7-0.1,1.5-0.7,2.4c-0.4,0.6-1.2,1.2-1.9,1.1c-1.3-0.3-0.8-3-2.7-4.4
			c-1-0.7-2.1-0.7-2.1-1.3c0-0.3,0.3-0.6,0.6-0.9c0.7-0.7,1.2-0.5,2.3-1.1c0.6-0.3,1.2-0.6,1.4-1.2c0.2-0.5,0.1-0.9,0-1.7
			c-0.2-1.3-0.3-2.1-1-2.7c-0.8-0.8-2.2-0.9-2.4-0.5c-0.2,0.3,0.3,0.5,0.3,1.3c0.1,1.1-0.5,2-0.8,2.5c-0.3,0.5-0.7,1.1-1.5,1.5
			c-1,0.5-1.8-0.1-2,0.3c-0.4,0.6,1.3,1.8,0.9,2.9c-0.3,0.9-1.9,1.3-3.1,1.1c-0.9-0.2-1.5-0.7-1.8-1c-1.9,1.6-3.8,3.2-5.7,4.8
			c0.2,0.5,0.5,1.3,1,2c1.1,1.7,2.3,1.9,3.2,2.9c0.8,0.8,1.5,2.4,1.2,5.7c0.1-0.8,0.5-2.7,2-3.8c0.6-0.4,1.2-0.6,1.6-0.7
			c0.1-1.5,0.3-3,0.4-4.5c0.7-1.3,1.4-2.6,2.1-4c1.1,0.5,2.3,0.9,3.5,1.4c-0.1,1.7-0.2,3.4-0.2,5.1c0.5,0.1,0.9,0.3,1.4,0.4
			c0.5-1.6,0.9-2.4,1.2-2.4c0.5,0.1,0.8,2.3,0.8,6.8c2,0.6,2.6,1.7,2.8,2.2c0.4,0.9,0.2,1.3-0.1,4.9c-0.2,2.6-0.1,3.3-0.6,3.6
			c-1,0.7-3.1-0.8-3-1c0-0.1,0.9,0.3,1.2-0.1c0.2-0.3-0.2-0.7-0.3-2.1c0-0.1,0-0.2,0-0.3c-0.1-1.6,0.8-2.7,0.6-3
			c-0.2-0.2-1.1,0.9-2.5,1.3c-2.2,0.7-4.3-1-4.5-0.6c-0.2,0.3,0.9,0.8,1.1,2.1c0.2,1.1-0.3,1.5-0.1,2.4c0.4,1.5,2.6,1.7,2.5,2.2
			c-0.1,0.4-1.7,0.6-3.2,0.3c-1.6-0.3-2.2-0.9-2.7-0.5c-0.8,0.6-0.3,2.2-1,2.6c-0.6,0.3-1-0.5-1.7-0.1c-0.6,0.3-0.4,1.2-1.1,1.9
			c-0.7,0.7-1.3,0.2-2,0.7c-0.9,0.7-0.3,1.6-1.2,2.9c-0.6,1-1.1,0.7-2.6,2.3c-1,1-1.2,1.6-1.3,2c-0.1,0.6,0.1,0.7,0.1,1.8
			c0,0.9,0,1.8-0.5,2.4c-0.4,0.5-1.1,0.8-1.3,0.6c-0.2-0.2,0.1-0.7,0.1-2.3v-0.1c0-1.1-0.6-2-1.1-2.4c-0.6-0.5-1.2-0.4-2.7-0.3
			c-3.6,0.2-3.7-0.4-4.6,0.1c-0.7,0.4-1.7,1.8-2.3,4.3c-0.2,0.7-0.4,1.7-0.5,2.9h0.5c-0.2,0.9,0.1,1.8,0.7,2.2
			c0.6,0.5,1.5,0.5,2.1,0.2c1-0.5,0.8-1.8,1.7-2.1c0.5-0.2,1.3,0.1,1.6,0.7c0.2,0.5-0.1,0.9-0.3,3.1c-0.1,0.4-0.1,0.7,0.1,0.9
			c0.3,0.5,1,0.2,1.7,0.5c1.1,0.6,1.3,2.5,1.3,3.2c0.1,1.2-0.2,2.3-0.5,2.9c0.7,0.2,1.5,0.4,2.3,0.8c1.1,0.5,1.9,1,2.6,1.6
			c0.3-0.1,0.6-0.2,0.9-0.3c2-0.6,3.9-0.5,3.9-0.5c0.8,0,4.2,0.1,6.3,2c1.3,1.2,2.2,3.2,2.5,3.7c0.4,0.8,0.5,1.3,1.1,1.8
			c1.1,0.9,2.8,1,3.3,1.1c1.5,0.1,1.9-0.2,2.6,0.2c0.7,0.4,0.9,1.1,1,1.6c0.3,1.3-0.4,1.7-0.2,2.9c0.2,1.1,1.1,1.9,1.6,2.3
			c1.1,0.9,2.5,1.3,3.5,1.6c0.3,0.1,0.6,0.2,0.8,0.2c1.3,0.3,2.3,0.4,2.6,0.5c2.3,0.3,4.6,0.5,5.5,1.7
			C83.5,127.8,81.2,132.9,81,133.3z"/>
		<path class="st9" d="M90.6,13.8c0.4,1.1,0.7,1.9,1,2.5c0.2,0.6,0.4,1,0.2,1.2c-0.2,0.3-0.7,0.2-1.1,0.1c-0.2-0.1-0.4-0.2-0.6-0.4
			c-0.2-0.1-0.3-0.2-0.3-0.3c-0.4-0.4-1.1-0.8-1.2-0.8c-0.1,0.1,0.3,0.8,0.9,1.3c0.3,0.3,0.8,0.7,1.6,0.9c0.4,0.1,0.7,0.1,0.9,0.3
			c0,0,0.1,0.1,0.1,0.9c-0.2,0.6-0.5,0.8-0.7,0.8c-0.4,0.1-0.7-0.4-1.1-0.3c-0.2,0.1-0.3,0.3-0.6,0.5c-0.4,0.3-0.7,0.4-1.1,0.5
			c-0.7,0.3-0.7,0.9-1.4,1.8c-0.7,1-1,0.7-1.9,1.8c-0.2,0.2-0.2,0.3-1.3,2c-0.1,0.2-0.8,1.2-0.9,1.4c-0.4,0.3-1,0.6-1.7,0.6
			c-0.9,0-1.1-0.5-2.2-0.6c-0.8-0.1-0.7,0.2-2,0.2c-1.4,0.1-1.6-0.2-2.4,0c-0.7,0.2-1.2,0.7-1.5,0.8c-1,0.9-1,1.8-1.6,1.9
			c-0.5,0.1-1.1-0.6-1.4-1.1c-0.3-0.7-0.2-1.4,0-2.4c0.1-0.6,0.4-1.6,0.9-2.6c0.6-0.7,1.2-1.3,1.8-2c0.4-0.1,0.9-0.2,1.3-0.6
			c0.4-0.4,0.3-0.7,0.6-1.5c0.1-0.2,0.4-0.8,1.1-2c0.5-0.9,0.6-1.1,0.6-1.5c0-0.7-0.5-1.2-0.5-1.3c-0.5-0.5-1.2-0.6-1.3-0.6
			c0.4-0.8,0.8-1.7,1.2-2.5c0.8-0.2,1.5-0.3,2.3-0.5c0.2,0.3,0.5,0.6,0.8,0.5c0.5,0,0.5-0.6,1.2-0.9c0.5-0.2,0.7,0.1,1.5-0.1
			c0.9-0.1,0.9-0.4,1.4-0.4c0.5,0,0.6,0.4,1.6,1c0.8,0.5,1.5,0.8,1.9,0.9c0.6,0.2,0.8,0.3,1.2,0.2c0.6,0,0.8-0.3,1.4-0.3
			C90,13.6,90.4,13.7,90.6,13.8z"/>
		<path class="st9" d="M84,29.9c0.7,0.5,1.5,1,2.2,1.5c-0.1,0.3-0.3,0.6-0.4,1c-0.6,0.5-1.1,0.4-1.3,0.4c-0.1,0-0.2-0.1-0.6-0.3
			c-0.4-0.2-0.7-0.5-0.9-0.6c-0.3-0.2-0.4-0.4-0.4-0.5c-0.1-0.5,0.3-1,0.7-1.2C83.6,30,83.8,29.9,84,29.9z"/>
		<path class="st9" d="M126.1,65.4c0.2-0.4,0.8-0.5,1.3-0.4c0.3,0.1,0.4,0.4,0.7,1c0.4,0.6,0.7,0.9,1.3,1.4c0.6,0.5,1,0.7,1.2,1.2
			c0.1,0.1,0.2,0.5,0.1,0.9c-0.1,0.6-0.5,0.9-1,1.4c-0.7,0.6-0.8,0.7-1,0.7c-0.3,0-0.6-0.1-0.8-0.3c-0.1-0.1-0.1-0.3-0.1-0.4
			c0-0.8,0.6-1.1,0.6-1.7c0-0.7-0.8-1.3-1.1-1.2c-0.2,0.1,0.1,0.7-0.4,1.3c-0.3,0.5-1.1,0.8-1.4,0.7c-0.3-0.2-0.2-0.6-0.2-0.9
			c0-0.1,0.1-0.6,0.5-1.1c0.5-0.6,0.8-0.5,0.9-0.8C127.1,66.6,125.9,66,126.1,65.4z"/>
		<path class="st9" d="M132,84c0-0.1,0-0.2,0-0.3c0-0.1,0-0.2,0-0.3c-1.4,0.6-2.1,0.9-2.2,0.7c-0.1-0.2,0.5-0.7,0.3-1.2
			c-0.1-0.4-0.7-0.5-1.1-0.6l0.4-0.6c0,0,0.1-0.7,0-1.1c-0.1-1.1-1.7-1.6-1.6-2.1c0.1-0.4,0.9-0.3,2.2-0.7c0.8-0.2,1.4-0.5,1.9-0.7
			c0.1-0.7,0.2-1.5-0.3-2.1c-0.7-1.1-2.3-1-2.4-1.6c0-0.2,0.3-0.5,1-0.9c1.1-0.8,1.4-0.7,1.7-1.2c0.4-0.6,0-0.9,0.4-2
			c0.2-0.6,0.3-0.6,1-1.9c0.5-1,0.8-1.5,0.8-1.8c0.2-1.5-0.9-2.8-0.7-2.9c0.2-0.1,0.9,1.4,2.3,1.8c0.9,0.3,1.9,0,2.5-0.5
			c0.5-0.4,0.3-0.6,1.1-1.9c0.6-1,1-1.5,1.7-3c0.1-0.3,0.4-0.7,0.4-1.3c0-0.4,0.2-1.2-0.3-1.6c-0.3-0.2-0.6-0.1-1.7,0.1
			c-1.3,0.3-1.9,0.4-2.1,0.3c-1.4-0.6-1.1-6.1-1.2-6.1c0,0,0.1,1.2-0.5,2.4c0,0,0,0,0,0c-0.7,1.3-1,1.5-1.1,1.9
			c-0.2,0.6,0.2,1.2,0.8,2.4c0.8,1.3,1.1,1.3,1.4,2.1c0.6,1.6-0.2,3.4-0.7,3.4c-0.5,0-0.7-2-1.2-2c-0.4,0-0.4,1.4-0.8,1.4
			c-0.3,0-0.4-1.1-1.3-1.8c-0.3-0.3-0.9-0.6-1-0.4c-0.3,0.3,0.9,1.5,0.5,2.2c-0.2,0.4-0.8,0.4-1.2,0.3c-0.5-0.2-0.6-0.7-1.4-1.9
			c-1-1.6-1.4-1.8-1.4-2.4c0-0.6,0.4-1,0.9-1.5c1-1.1,1.6-0.9,1.9-1.7c0.3-0.7-0.2-1.1-0.4-2.9c-0.1-0.6-0.2-1.7-0.1-3
			c0.2-1.6,0.7-2.8,0.9-3.4c0.4-0.9,0.7-1.6,1.2-2.2c1.7-2,4.5-1.9,4.6-1.9c0.5,0,0.8,0,5.5,2c1.5,0.6,2.3,1,3.1,0.7
			c1.1-0.4,1.9-1.7,1.8-3c0-0.7-0.3-1.1-0.6-1.8c-1.4-2.5-2-3.3-2.7-4.6c-0.9-1.7-1.7-3.2-1.5-4.8c0.1-0.5,0.2-0.5,1.5-3.2
			c1.1-2.3,1.3-2.9,1.8-2.9c0.6,0,1.2,1.2,1.4,2.2c0.4,2.1-1.1,2.7-1.2,5.2c0,0.6-0.1,3.1,1.6,4.7c1.2,1.1,2.6,1.1,3,1.1
			c0.5,0,1.7,0,2.3-0.9c0.2-0.4,0.2-0.8,0.2-1.3c0-2-1.1-3-0.7-3.7c0.3-0.5,1.3-0.4,1.4-0.3c0.5,0.1,1,0.3,1.4,0.7
			c0.1,0.7,0.4,1.4,0.7,2.2c0.2,0.5,0.5,0.9,0.6,1.1c0.6,0.9,1.4,2,1.6,1.9c0.2-0.1-1-3.6-2.9-5.2c-0.1-0.6-0.2-1.1-0.2-1.6
			c1.5-0.2,1.6-0.2,1.6-0.2c0.9-0.1,1.7,0.1,2.4,0.4c0.2,0.1,0.4,0.2,0.7,0.3c0,0,0.3,0.1,0.4,0.2c-0.2-0.1-0.5-0.3-1.1-0.5
			c-1-1.8-2-4-1.5-4.5c0.3-0.3,1.4,0,5.8,4.2c5.2,5,9.3,8.8,13.6,15.6c5.2,8.2,7.4,15.5,9.2,21.4c0,0,2,6.7,4.1,19.6
			c0.1,0.4,0.1,1,0.3,2.3c0.2,1.6,0.2,2.2,0.1,3c0,0.2-0.3,1.7-0.7,1.7c-0.5,0-0.5-2.5-1.9-5.3c-0.2-0.4-1-2-1-2
			c-0.3-0.5-0.7-0.9-0.9-1.1c-1.2-1.4-1.1-1.4-1.3-1.6c-0.9-1.5-0.8-2.3-1.4-2.5c-0.7-0.3-1.1,0.6-2,0.3c-0.9-0.3-0.8-1.3-1.8-1.7
			c-0.7-0.3-1.3-0.2-2.3,0.1c-1.8,0.5-2.4,1.4-3.3,1.1c-0.6-0.2-0.5-0.6-1.1-0.7c-0.8-0.2-1.2,0.6-2.3,0.6c-0.7,0-1.3-0.3-1.6-0.4
			c-1.2-0.6-1.3-1.3-2.1-1.3c-0.6-0.1-1.3,0.3-1.3,0.7c-0.1,0.5,0.6,0.9,1.7,1.8c1.4,1,2.1,1.1,2.3,1.2c0.4,0,1,0.1,1.4-0.2
			c0.4-0.3,0.2-0.7,0.6-0.9c0.6-0.4,1.7,0.2,2.4,0.8c0.2,0.2,0.8,0.8,1,1.7c0.1,0.4,0.1,0.9-0.7,2.6c-0.7,1.6-1.1,2.4-1.8,3.2
			c-0.8,0.8-0.8,0.4-2.2,1.7c-0.9,0.8-1.4,1.4-2,1.3c-0.4-0.1-0.7-0.3-0.9-0.6c0,0-1.2-1.5-2-2.5c-0.7-0.9-1.9-2.3-3.4-3.8
			c-0.8-0.7-1.4-1.2-1.8-1.5c-0.4-0.3-0.7-0.5-0.9-0.6c-1.3-0.9-2.7-1.8-3.5-2.4c0.3-0.1,0.7-0.2,0.9-0.5c0.2-0.3,0.1-0.7,0-1.3
			c-0.3-1.7,0-2.2-0.4-2.6c-0.2-0.2-0.5-0.2-1.2-0.2c-0.8,0-1.3,0.2-2.8,0.7c-1,0.3-1.3,0.3-1.5,0.2c-0.3-0.2-0.3-0.4-0.7-1.2
			c-0.5-1.1-0.9-1.8-1.4-2c-0.2-0.1-0.7-0.2-1.6,0.4c0.1,0.5,0.4,1.1,0.7,1.7c0.3,0.6,0.6,1,0.9,1.4c-0.1,0.3-0.3,0.8-0.6,0.8
			c-0.2,0-0.5-0.2-1.1-1.2c-0.8-1.1-0.8-1.5-1.2-2c-0.6-0.8-1.3-1.2-2.4-1.8c-1.3-0.7-3.2-1.3-3.4-1c-0.2,0.3,1,1.2,1.2,1.4
			c1,0.8,1.5,0.8,2.3,1.6c0.5,0.6,1,1.2,0.8,1.4c-0.1,0.2-0.5-0.1-0.8,0.2c-0.2,0.2-0.1,0.5-0.2,0.8c-0.1,0.8-0.9,1.5-1.2,1.4
			c-0.4-0.2,0.5-2.1-0.3-2.6c-0.3-0.2-0.5,0.1-1.1-0.1c-1.4-0.3-1.6-1.9-2.6-2c-0.7-0.1-0.6,0.6-2,1.3c-0.9,0.4-1.4,0.4-1.5,0.8
			c-0.1,0.6,0.9,1,0.9,1.6c0,0.4-0.4,0.8-2.1,1.2C133.1,81,132.6,82.5,132,84z"/>
		<path class="st9" d="M48.7,29.2c1.9,0.2,2.6-0.1,2.8-0.5c0.2-0.3,0.1-0.7,0.3-0.8c0.2-0.1,0.4,0.1,1.2,0.6
			c0.9,0.6,1.5,0.8,1.7,1.3c0,0,0,0.1,0,0.1c0.1,0.5-0.3,1.1-0.7,1.3c-0.7,0.4-1.9-0.1-2.6-0.4c-0.8-0.3-1.6-0.9-2.2-0.7
			c0,0,0,0,0,0c-0.5,0.2-0.7,0.7-0.8,0.9c-0.6,1.6-0.9,2.3-1.1,2.4c-0.3,0-0.8-0.7-0.8-1.4c-0.1-0.9,0.5-1.6,0.3-1.7
			c-0.1-0.1-0.9,0.4-3.4,2.7c0.4,0.5,0.7,1,1.1,1.6c-0.2,0-0.3,0-0.6,0c-0.3,0-0.5,0-0.7-0.1c-0.6-0.1-1-0.1-1.1,0
			c-0.1,0.2,0.3,0.4,0.8,1.2c0.4,0.7,0.7,1.4,1.1,1.5c0.3,0,0.3-0.2,0.8-0.3c0.8-0.2,1.6,0.1,2,0.3c0.1,0.1,0.4,0.2,0.7,0.4
			c0.5,0.4,0.6,0.7,1.1,0.8c0.1,0,0.2,0.1,0.5,0.1c1,0.1,1.6-0.3,2.4-0.4c1.4-0.2,2.3,0.8,2.7,0.4c0.3-0.2,0.1-0.8-0.1-1.3
			c-0.5-1.9-0.2-4.6,1.4-5.6c0.8-0.5,1.9-0.6,2.1-0.6c1.6,0,2.3,0.9,3.5,0.5c0.5-0.1,1.1-0.5,1.1-0.9c0-0.7-2.1-1.1-2.1-1.4
			c0.1-0.2,1.6,0.4,3-0.1c1.6-0.5,1.4-1.8,3.4-3.7c1.1-1,2.3-1.7,4.1-2.6c1.5-0.8,2.5-1.2,2.9-2.3c0.1-0.2,0.4-0.9,0-1.6
			c-0.2-0.3-0.4-0.5-0.7-0.7c-0.3-0.2-0.8-0.6-1.6-0.8c-3.8,1.1-8.6,2.7-13.7,5.5C54.1,25.2,51.1,27.3,48.7,29.2z"/>
		<g>
			<path class="st2" d="M146,176.8c-12.1,4.1-24.5,6.2-37.1,6.2c-14.2,0-27.1-2.2-38.8-6.5c-11.7-4.4-21.8-10.4-30.3-18.1
				c-8.5-7.7-15.1-16.9-19.8-27.7c-4.7-10.8-7-22.4-7-35.1s2.3-24.3,7-35.1c4.7-10.8,11.3-20,19.8-27.7s18.6-13.7,30.4-18.1
				c11.8-4.4,24.7-6.5,38.7-6.5c11.7,0,23.1,1.8,34.1,5.3c11.1,3.5,20.5,8.8,28.3,16l-3.7,3.7c-3.7-3.4-7.9-6.4-12.6-9
				c-4.7-2.6-9.7-4.7-14.9-6.4c-5.2-1.7-10.5-3-15.8-3.7c-5.3-0.8-10.5-1.2-15.4-1.2c-13.5,0-25.7,2.1-36.8,6.4
				C61,23.6,51.6,29.4,43.7,36.9c-7.9,7.5-14,16.2-18.3,26.3c-4.3,10-6.5,20.8-6.5,32.4c0,11.5,2.1,22.3,6.4,32.4
				c4.3,10,10.3,18.8,18.2,26.3c7.9,7.5,17.4,13.4,28.4,17.6c11.1,4.3,23.4,6.4,37.1,6.4c11.7,0,23.2-2,34.7-6
				c11.4-4,20.9-9.9,28.3-17.9l4.3,3.5C168.2,166.4,158.1,172.7,146,176.8z"/>
		</g>
		<g>
			<path class="st2" d="M161.9,136.6c0,3.2-0.6,6.2-1.8,9c-1.2,2.7-2.8,5.1-5,7.1c-2.1,2-4.6,3.5-7.5,4.7c-2.9,1.1-6,1.7-9.4,1.7
				s-6.5-0.6-9.4-1.7c-2.9-1.1-5.4-2.7-7.5-4.7c-2.1-2-3.8-4.3-5-7.1c-1.2-2.7-1.8-5.7-1.8-9s0.6-6.2,1.8-9c1.2-2.7,2.8-5.1,5-7.1
				c2.1-2,4.6-3.5,7.5-4.7c2.9-1.1,6-1.7,9.4-1.7s6.5,0.6,9.4,1.7c2.9,1.1,5.4,2.7,7.5,4.7c2.1,2,3.8,4.3,5,7.1
				C161.3,130.3,161.9,133.3,161.9,136.6z M157,136.6c0-2.5-0.4-4.8-1.3-7.1c-0.9-2.2-2.1-4.2-3.7-5.9c-1.6-1.7-3.6-3-5.9-4
				c-2.3-1-4.9-1.5-7.8-1.5c-2.9,0-5.5,0.5-7.8,1.5c-2.3,1-4.3,2.3-5.9,4c-1.6,1.7-2.9,3.7-3.7,5.9c-0.9,2.2-1.3,4.6-1.3,7.1
				c0,2.5,0.4,4.8,1.3,7.1c0.9,2.2,2.1,4.2,3.7,5.9c1.6,1.7,3.6,3,5.9,4c2.3,1,4.9,1.5,7.8,1.5c2.9,0,5.5-0.5,7.8-1.5
				c2.3-1,4.3-2.3,5.9-4c1.6-1.7,2.9-3.6,3.7-5.9C156.6,141.4,157,139.1,157,136.6z"/>
			<path class="st2" d="M193.9,150.5L193.9,150.5l15.2-35.2h7v42.5h-4.6v-37h-0.1l-16.4,37h-2.4l-16.4-37h-0.1v37h-4.6v-42.5h7
				L193.9,150.5z"/>
			<path class="st2" d="M250.6,150.5L250.6,150.5l15.2-35.2h7v42.5h-4.6v-37h-0.1l-16.4,37h-2.4l-16.4-37h-0.1v37h-4.6v-42.5h7
				L250.6,150.5z"/>
			<path class="st2" d="M301.6,158.9c-3.4,0-6.2-0.6-8.4-1.7c-2.2-1.1-3.9-2.5-5.2-4.2c-1.3-1.7-2.2-3.5-2.7-5.5
				c-0.5-2-0.7-3.9-0.7-5.6v-26.7h4.6v26.2c0,1.7,0.2,3.4,0.6,5c0.4,1.6,1.1,3.1,2.1,4.3c1,1.3,2.2,2.3,3.8,3.1
				c1.6,0.8,3.5,1.2,5.8,1.2c2.3,0,4.2-0.4,5.8-1.2c1.6-0.8,2.8-1.8,3.8-3.1c1-1.3,1.7-2.7,2.1-4.3c0.4-1.6,0.6-3.3,0.6-5v-26.2h4.6
				V142c0,1.8-0.2,3.6-0.7,5.6c-0.5,2-1.4,3.8-2.7,5.5c-1.3,1.7-3,3.1-5.2,4.2C307.8,158.4,305,158.9,301.6,158.9z"/>
			<path class="st2" d="M362.5,151.5h0.1v-36.2h4.6v42.5h-5.8l-26.4-36.6H335v36.6h-4.6v-42.5h5.8L362.5,151.5z"/>
			<path class="st2" d="M383.9,157.8h-4.6v-42.5h4.6V157.8z"/>
			<path class="st2" d="M410.4,157.8h-4.6v-38.7h-15.2v-3.8h34.9v3.8h-15.2V157.8z"/>
			<path class="st2" d="M437,157.8h-4.6v-42.5h4.6V157.8z"/>
			<path class="st2" d="M453.6,154h24.3v3.8H449v-42.5h28.1v3.8h-23.5v14.6h22v3.8h-22V154z"/>
			<path class="st2" d="M508.9,122.1c-1-1.3-2.2-2.3-3.8-3.1c-1.5-0.8-3.4-1.2-5.6-1.2c-1.1,0-2.2,0.2-3.4,0.5
				c-1.2,0.3-2.2,0.8-3.1,1.5c-0.9,0.7-1.7,1.5-2.3,2.5c-0.6,1-0.9,2.2-0.9,3.5c0,1.4,0.3,2.5,0.8,3.4c0.6,0.9,1.3,1.6,2.2,2.3
				c0.9,0.6,2,1.1,3.1,1.5c1.2,0.4,2.4,0.8,3.7,1.2c1.6,0.5,3.2,1,4.8,1.6c1.6,0.6,3,1.3,4.3,2.2c1.3,0.9,2.3,2,3.1,3.4
				c0.8,1.4,1.2,3.1,1.2,5.3c0,2.1-0.4,4-1.3,5.5c-0.9,1.5-2,2.8-3.4,3.8c-1.4,1-3,1.7-4.7,2.2c-1.8,0.5-3.6,0.7-5.3,0.7
				c-1.4,0-2.7-0.1-4.1-0.4c-1.4-0.3-2.7-0.7-3.9-1.2c-1.2-0.5-2.4-1.2-3.5-2c-1.1-0.8-2-1.7-2.8-2.8l4-2.8c1,1.5,2.4,2.8,4.1,3.8
				c1.8,1,3.9,1.5,6.2,1.5c1.2,0,2.3-0.2,3.5-0.5s2.3-0.9,3.2-1.6c1-0.7,1.7-1.6,2.4-2.6c0.6-1,0.9-2.2,0.9-3.6
				c0-1.5-0.3-2.7-0.9-3.7c-0.6-1-1.4-1.8-2.5-2.5c-1-0.7-2.2-1.2-3.5-1.7c-1.3-0.4-2.7-0.9-4.2-1.3c-1.5-0.4-3-0.9-4.4-1.5
				c-1.5-0.6-2.8-1.3-3.9-2.2c-1.2-0.9-2.1-2-2.8-3.3c-0.7-1.3-1.1-2.9-1.1-4.9c0-2,0.4-3.8,1.3-5.3c0.9-1.5,2-2.7,3.4-3.7
				c1.4-1,3-1.7,4.7-2.1c1.7-0.4,3.4-0.7,5.1-0.7c3.1,0,5.7,0.5,7.9,1.5c2.2,1,3.8,2.2,4.9,3.6L508.9,122.1z"/>
		</g>
		<path class="st7" d="M101.8,101.9H99V90.5l-10.6-15h3.6l8.5,12.8l8.6-12.8h3.4l-10.6,15V101.9z"/>
		<path class="st7" d="M136.4,98L136.4,98l0.1-22.5h2.9v26.4h-3.6l-16.5-22.7h-0.1v22.7h-2.9V75.4h3.6L136.4,98z"/>
		<path class="st7" d="M146.7,101.9h-3.2l12.3-26.4h2.8l12.2,26.4h-3.2l-3.1-6.9h-14.7L146.7,101.9z M150.8,92.5h12.5l-6.3-14
			L150.8,92.5z"/>
		<path class="st7" d="M174.9,75.4h8c1.4,0,2.8,0.1,3.9,0.4c1.2,0.3,2.2,0.7,3,1.3c0.8,0.6,1.5,1.3,1.9,2.2c0.5,0.9,0.7,1.9,0.7,3.1
			s-0.2,2.2-0.7,3.1c-0.5,0.9-1.1,1.6-2,2.2c-0.8,0.6-1.9,1-3,1.3c-1.2,0.3-2.5,0.4-3.9,0.4h-5.1v12.3h-2.9V75.4z M177.8,87.3h4.9
			c2.3,0,4-0.4,5.2-1.2c1.2-0.8,1.8-2,1.8-3.6c0-1.6-0.6-2.8-1.8-3.6c-1.2-0.8-2.9-1.1-5.1-1.1h-4.9V87.3z"/>
		<path class="st7" d="M207.1,101.9h-2.9v-24h-9.5v-2.4h21.9v2.4h-9.5V101.9z"/>
		<path class="st7" d="M223.7,101.9h-2.9V75.4h2.9V101.9z"/>
		<path class="st7" d="M255.2,97.6c-0.5,0.7-1.1,1.3-1.7,1.9c-0.7,0.6-1.5,1.1-2.4,1.6c-0.9,0.5-1.9,0.8-3,1.1
			c-1.1,0.3-2.3,0.4-3.5,0.4c-2.1,0-4.1-0.3-5.9-1c-1.8-0.7-3.4-1.7-4.7-2.9c-1.3-1.2-2.3-2.7-3.1-4.4c-0.7-1.7-1.1-3.5-1.1-5.6
			s0.4-3.9,1.1-5.6c0.7-1.7,1.8-3.2,3.1-4.4c1.3-1.2,2.9-2.2,4.7-2.9c1.8-0.7,3.8-1,5.9-1c1,0,2.1,0.1,3.1,0.3
			c1,0.2,1.9,0.5,2.8,0.9c0.9,0.4,1.7,0.8,2.4,1.3c0.7,0.5,1.3,1.1,1.8,1.7l-2.4,1.6c-0.3-0.4-0.7-0.8-1.2-1.3
			c-0.5-0.4-1.1-0.8-1.7-1.1c-0.7-0.3-1.4-0.6-2.2-0.8c-0.8-0.2-1.6-0.3-2.5-0.3c-1.8,0-3.5,0.3-5,0.9c-1.5,0.6-2.7,1.5-3.7,2.5
			c-1,1.1-1.8,2.3-2.3,3.7c-0.5,1.4-0.8,2.9-0.8,4.4c0,1.5,0.3,3,0.8,4.4c0.5,1.4,1.3,2.6,2.3,3.7c1,1.1,2.3,1.9,3.7,2.5
			c1.5,0.6,3.1,0.9,4.9,0.9c1.6,0,3.2-0.3,4.7-0.9c1.5-0.6,2.7-1.6,3.7-3L255.2,97.6z"/>
		<path class="st7" d="M91.6,100.6c0,2.4-0.5,4.6-1.4,6.5c-0.9,1.9-2.2,3.5-3.8,4.8c-1.6,1.3-3.4,2.3-5.6,3c-2.1,0.7-4.4,1-6.7,1
			c-3.6,0-6.8-0.6-9.8-1.9c-2.6-1.1-4.7-2.5-6.5-4.3c-0.6,0.4-1.1,0.9-1.7,1.3l0.6-4.3l4.4,0.6c-0.6,0.4-1.2,0.9-1.8,1.3
			c1.8,1.8,3.9,3.1,6.3,4c2.7,1.1,5.6,1.6,8.5,1.6c2.1,0,4.1-0.3,6-0.9c1.9-0.6,3.6-1.5,5-2.7c1.5-1.2,2.6-2.6,3.5-4.3
			c0.8-1.7,1.3-3.6,1.3-5.8c0-2.2-0.5-4-1.4-5.5c-0.9-1.5-2.1-2.8-3.6-3.9c-1.5-1.1-3.1-2-5-2.7c-1.9-0.7-3.7-1.4-5.6-2
			c-2.4-0.7-4.6-1.5-6.5-2.4c-2-0.8-3.7-1.8-5.1-3.1c-1.4-1.2-2.5-2.7-3.3-4.3c-0.8-1.7-1.2-3.7-1.2-6.2c0-2.4,0.5-4.5,1.4-6.3
			c0.9-1.8,2.2-3.4,3.9-4.7c1.6-1.3,3.5-2.2,5.6-2.9c2.1-0.7,4.4-1,6.8-1c2.9,0,5.7,0.6,8.3,1.7c2.1,0.9,3.9,2.1,5.4,3.6
			c0.6-0.5,1.2-0.9,1.7-1.4l-0.5,4.3l-4.4-0.5c0.6-0.4,1.1-0.9,1.7-1.3c-1.3-1.3-2.9-2.4-4.7-3.2c-2.4-1-4.9-1.6-7.7-1.6
			c-1.9,0-3.9,0.3-5.7,0.8c-1.9,0.5-3.6,1.4-5.1,2.5c-1.5,1.1-2.7,2.5-3.7,4.1c-0.9,1.7-1.4,3.6-1.4,5.9c0,2.2,0.4,4.1,1.2,5.6
			c0.8,1.5,1.9,2.8,3.2,3.9c1.4,1.1,2.9,2,4.6,2.7c1.7,0.7,3.4,1.3,5.2,1.9c2.4,0.8,4.7,1.6,6.8,2.5c2.1,0.8,4,1.8,5.6,3
			c1.6,1.2,2.8,2.6,3.7,4.3C91.2,96.1,91.6,98.2,91.6,100.6z"/>
	</g>
</g>
</svg>
