<?xml version="1.0" encoding="utf-8"?>
<!-- Generator: Adobe Illustrator 21.0.0, SVG Export Plug-In . SVG Version: 6.00 Build 0)  -->
<svg version="1.1" xmlns="http://www.w3.org/2000/svg" xmlns:xlink="http://www.w3.org/1999/xlink" x="0px" y="0px"
	 viewBox="0 0 640 240" style="enable-background:new 0 0 640 240;" xml:space="preserve">
<style type="text/css">
	.st0{fill:#FFFFFF;}
	.st1{fill:#9FD9D8;}
	.st2{fill:#B2B1D8;}
	.st3{fill:#525E64;}
	.st4{fill:#72C9BE;}
	.st5{fill:#D3DADD;}
	.st6{fill:#2984A0;}
</style>
<g id="white_background">
	<path class="st0" d="M628,240H12c-6.6,0-12-5.4-12-12V12C0,5.4,5.4,0,12,0h616c6.6,0,12,5.4,12,12v216C640,234.6,634.6,240,628,240
		z"/>
</g>
<g id="Layer_1">
	<g>
		<path class="st1" d="M102.7,136.6c0-0.1,0-0.1-0.1-0.2"/>
		<path class="st2" d="M184.2,162.1"/>
		<path class="st3" d="M253.2,121.5c-0.2-0.3-0.5-0.5-0.7-0.7h0.6C253.2,121,253.2,121.2,253.2,121.5z"/>
		<path class="st4" d="M138.3,162.7c0,0.1-0.1,0.1-0.1,0.1C138.1,162.8,138.2,162.8,138.3,162.7z"/>
		<path class="st2" d="M193.5,63.9L193.5,63.9L193.5,63.9L193.5,63.9L193.5,63.9"/>
		<path class="st3" d="M253.8,122.1h-0.5c0-0.2,0-0.4,0-0.6C253.4,121.7,253.6,121.9,253.8,122.1z"/>
		<g>
			<path class="st1" d="M115.9,147.9c0,0,0-0.1-0.1-0.1"/>
		</g>
		<g>
			<path class="st2" d="M198.2,164.7"/>
		</g>
		<g>
			<path class="st4" d="M151.8,165.1l-0.1,0.1C151.7,165.2,151.7,165.2,151.8,165.1z"/>
		</g>
		<g>
			<path class="st2" d="M207.1,52.9L207.1,52.9C207.1,52.9,207.2,52.9,207.1,52.9C207.2,52.9,207.1,52.9,207.1,52.9L207.1,52.9"/>
		</g>
		<path class="st5" d="M230,139.8c-0.4,2.8-0.9,5.1-1.4,6.7c-0.5,1.8-1,3.4-1.9,5.5c-0.5,1.1-1.4,2.8-2.9,4.7
			c-2.7,3.3-4.4,3.3-4.8,5.3s1.4,2.3,1.2,5c-0.1,1.7-1,3-0.6,5.5c0,0.3,0.1,0.6,0.1,0.7c0.4,2,1.4,3.4,2.1,4.3
			c-3.6,6.1-8.7,13.3-15.7,20.4c-4,4-7.9,7.4-11.5,10.1c-1.8-2.6-1.9-4.2-1.7-5.3c0.2-0.9,0.7-1.5,0.7-2.6c-0.1-1.1-0.6-1.9-1.1-2.6
			c-1.1-1.6-1.8-1.4-2.7-2.7s-1.2-2.7-1.3-3.7c-0.1-0.9-0.5-3.6,0.8-5.6c0.9-1.4,1.8-1.1,2.4-2.6c0.7-1.5,0.4-3,0.3-3.8
			s-0.4-2.4-1.5-3.5c-1-1-1.8-0.5-2.3-1.4c-0.7-1.2,0.4-2.7-0.3-3.6c-0.8-1.3-3.3,0.3-4.1-0.8c-0.8-1,1-2.8,0.9-6.6
			c-0.1-1.9-0.1-3.8-1.1-4.5c-1.1-0.8-2.3,0.5-3.6-0.5c-0.9-0.7-0.8-1.9-1.7-2.3c-0.9-0.4-2,0.5-2.1,0.6c-1.4,1.1-0.9,2.6-2,3.8
			c-0.7,0.7-2.2,0.7-5.1,0.6c-2.6-0.1-4-0.2-5.3-0.7c-0.3-0.1-1.5-0.7-3.2-2.2c-1.1-1-4.5-4.1-6-9.5c-0.5-1.8-0.6-4.1-0.8-8.6
			c-0.2-5.8-0.3-8.8,0.5-11c0.3-0.9,0.8-1.6,0.8-1.6c1-1.8,2.1-2.6,2.8-3.4c0.8-1,1.7-2.6,1.5-5.6c0.3-0.5,0.5-1,0.8-1.6
			c0.2-0.4,0.4-0.8,0.7-1.2c0-0.1,0.1-0.2,0.3-0.4c0.7-0.7,1.8-0.5,2.7-0.7c1.8-0.6,1-2.5,2.8-3.2c0.9-0.4,1.3,0,3.4-0.1
			c1.4-0.1,2.5-0.4,3.2-0.6c2.4,0,4.3-0.1,5.6-0.1c1.5-0.1,2.5-0.2,2.9,0.2c0.6,0.7-0.9,1.8-0.3,2.5c0.4,0.5,1.2,0.3,4,0.6
			c2.3,0.3,3,0.6,3.6,0.2s0-0.9,0.4-1.8c0.4-0.8,1.1-1,4.1-2.3c3.4-1.4,3.9-1.7,4.5-1.5c0.2,0.1,1,0.5,0.8,2.4
			c-1-0.2-2.7-0.6-2.9-0.3c-0.2,0.3,1.3,1.2,2.1,1.7c1.1,0.7,2.8,1.5,5.2,2.3c0.2,0.3,0.6,0.7,1.1,1c0.4,0.3,0.8,0.5,0.9,0.5
			c0.5,0.3,1.5,1.1,3.4,3.1c0.2,0.2,0.4,0.5,0.7,0.7c0,0.2,0,0.4,0,0.6c0.1,1.5,0.5,3.4,1.2,5.4c1,2.6,1.8,3.4,3.9,6.8
			c3.8,6.4,3.4,8,5.3,9.2C221.4,142.6,224.2,143.2,230,139.8z"/>
		<path class="st5" d="M97.8,165.6L97.8,165.6c-0.1-0.1-1.9,0.3-2.9,1.2c-0.7,0.7-0.4,1.2-0.7,3.6c-0.2,2-0.4,1.6-0.7,3.5
			c-0.2,1.4-0.2,2.6-0.7,3.6c-0.2,0.3-0.6,1.1-1.5,1.6c0,0-0.1,0-0.1,0.1c-1.4,0.7-3.6,0.5-3.6,0.5c-3.6-0.3-4.5-0.9-5.2-0.4
			c-0.8,0.6-0.5,2.2-0.4,2.4c0.2,0.7,0.6,1.2,0.6,2.4c0,0.2,0,0.3,0,0.5c-0.2,1.1-1.2,1.9-2,2.4c-0.2,0.1-0.4,0.3-0.7,0.4
			c-0.3,0.2-0.5,0.2-0.9,0.5c0,0-0.3,0.2-0.6,0.4c-1.2,0.8-2.5,2.4-2.9,2.8c-0.4,0.4-0.6,0.7-0.8,1.1c-0.2,0.3-0.3,0.5-0.6,0.9
			c0,0-0.2,0.3-0.5,0.7c-0.7,0.8-2.1,2.2-3.8,3.5c-0.2,0.2-0.6,0.4-1,0.7c-0.6,0.4-0.9,0.5-1.4,0.8s-1,0.6-1.5,0.9
			c-2.2,1.5-3.9,3.1-5.3,4.6c-3.3-3.1-6.7-6.2-10-9.3c0.5-2.9,0.9-4.4,1.1-5.2c0.1-0.2,0.3-1.1,0.5-2.2c0.1-0.3,0.1-0.6,0.1-1
			c0.1-0.6,0-1.3-0.1-2.3c0,0-0.6-5.6,1.5-8.8c0,0,0.1-0.2,0.2-0.3c0.8-1.2,1.6-2.6,1.3-3.8c-0.1-0.8-0.8-1.4-2-2.6
			c-0.5-0.5-0.9-0.8-1.5-1.3c-1.5-1.2-2.3-1.7-2.8-2.1c-1-0.8-1.3-1.6-2.5-4.9c-1.1-3-1.6-4.5-2.1-6c0,0-1.7-5.2-0.6-7.1
			c0.2-0.3,0.5-0.6,0.5-0.6c0.5-0.3,1.1-0.7,1.7-1.2c0.7-0.6,1.1-1.3,1.3-1.7c0.3-0.3,0.6-0.6,0.9-0.9c2-4.5,3.1-6.2,3.6-6.5
			c0.1,0,0.3-0.2,0.7-0.5c-0.3-1-0.8-1.4-1.1-1.7c-0.9-0.5-1.7,0.1-2.8-0.6c-0.8-0.5-1.2-1.2-1.5-1.8c-1-2-0.2-3-1-3.9
			c-1.1-1.1-2.9,0.2-3.8-0.9c-0.6-0.8,0.1-1.6-0.5-2.5c-0.8-1.3-2.8-0.5-5.7-1.5c-1.3-0.4-3.6-1.2-4.3-3.1c-0.3-0.8-0.2-1.7,0-2.3
			c-0.7-2.1-1.3-4.2-2-6.3c-0.5-5.7-1-7.7-1.5-7.7c-1,0-2,9.4-2.4,9.4c-0.2,0,0-1.3,0-3.5c-0.1-4.2-0.1-6.3-0.3-7.3
			c-0.2-1.1-0.5-1.9-0.8-2.5c-0.6-1.1-1.2-1.4-1.7-2.6c0,0-0.1-0.2-0.2-0.5s-0.2-0.8-0.3-1.2c0-0.1-0.2-1.1-0.3-1.9
			c-0.1-1.6,0.5-2.3,1.1-4.5c0.4-1.4,0.3-1.5,0.7-3.1c0.5-2.1,1.1-3.6,1.9-5.6c2-5,3.1-7.5,4.3-9.9c2.7-5.4,5.3-9.2,6.9-11.6
			c0.9-1.4,2.1-3,3.5-4.9c1.2-1.5,1.9-2.4,3.2-3.8c3.6-4.2,4.2-4.5,4.7-4.3c1.1,0.4,0.5,2.6,2.3,4.4c1.1,1.1,2.8,1.6,3.4,1
			c0.3-0.4,0.1-0.8,0.5-1.4c0.4-0.4,1-0.8,1.5-0.6c0.7,0.2,0.4,1.3,1.1,2.2c0.8,1.1,2.2,1.3,3.7,1.4c2.4,0.3,2.6-0.5,4,0
			c1.1,0.4,1.6,1.2,2.9,1.2c0.4,0,0.9,0,1.4-0.4c0.6-0.6,0.6-1.6,0.5-2.3c-0.2-3.4-0.3-5.2,0.3-6.4c1-2.2,3.8-2.8,4.1-2.8
			c3.4-0.6,5.6,2.3,5.9,2.6c0.8,1.1,0.4,1.2,1.8,5c1.2,3.3,2,4.3,1.5,5.5c-0.6,1.3-2,1.7-1.9,2.5s1.6,0.6,2.4,1.8
			c0.9,1.4,0.5,4-0.7,5c-1,0.8-1.9,0.1-2.7,1c-0.7,0.8-0.1,1.8-0.8,2.9c-0.5,0.7-1.5,1.5-2.3,1.3c-1.6-0.3-1-3.6-3.3-5.3
			c-1.2-0.8-2.6-0.8-2.6-1.6c0-0.4,0.4-0.8,0.8-1.1c0.9-0.8,1.5-0.6,2.8-1.3c0.8-0.4,1.4-0.7,1.8-1.5c0.3-0.6,0.2-1.1,0-2.1
			c-0.3-1.6-0.4-2.5-1.2-3.2c-1-0.9-2.6-1.1-3-0.6c-0.2,0.3,0.3,0.6,0.4,1.6c0.1,1.3-0.6,2.4-1,3s-0.9,1.3-1.8,1.7
			c-1.3,0.6-2.2-0.1-2.5,0.4c-0.5,0.7,1.6,2.2,1.1,3.5c-0.4,1.1-2.3,1.6-3.8,1.3c-1.1-0.2-1.8-0.9-2.1-1.3c-2.3,1.9-4.6,3.8-6.9,5.8
			c0.2,0.6,0.6,1.5,1.2,2.5c1.4,2,2.9,2.3,3.9,3.4c1,1,1.9,2.9,1.5,6.8c0.1-1,0.6-3.2,2.5-4.6c0.7-0.5,1.4-0.7,2-0.9
			c0.2-1.8,0.3-3.6,0.5-5.4c0.9-1.6,1.7-3.2,2.6-4.8c1.4,0.6,2.8,1.1,4.2,1.7c-0.1,2-0.2,4.1-0.3,6.1c0.6,0.2,1.1,0.3,1.7,0.5
			c0.6-1.9,1.1-2.9,1.4-2.9c0.6,0.1,0.9,2.8,1,8.2c2.4,0.7,3.2,2.1,3.5,2.6c0.5,1,0.2,1.6-0.1,5.9c-0.2,3.2-0.1,3.9-0.7,4.4
			c-1.3,0.9-3.8-0.9-3.7-1.2c0-0.1,1.1,0.3,1.5-0.1c0.2-0.3-0.2-0.9-0.4-2.5c0-0.1,0-0.2,0-0.3c-0.1-1.9,1-3.3,0.8-3.6
			c-0.3-0.3-1.4,1.1-3,1.6c-2.7,0.8-5.3-1.2-5.5-0.7c-0.2,0.3,1,0.9,1.4,2.5c0.3,1.3-0.4,1.8-0.1,2.8c0.5,1.8,3.2,2.1,3,2.7
			c-0.1,0.4-2,0.7-3.9,0.4c-2-0.4-2.7-1.1-3.3-0.6c-0.9,0.7-0.3,2.7-1.2,3.2c-0.7,0.4-1.3-0.5-2-0.2c-0.8,0.4-0.5,1.5-1.4,2.3
			s-1.5,0.2-2.4,0.9c-1.1,0.8-0.4,2-1.4,3.5c-0.8,1.2-1.3,0.8-3.2,2.8c-1.2,1.3-1.5,1.9-1.5,2.4c-0.2,0.7,0.1,0.8,0.1,2.1
			c0,1.1,0,2.1-0.7,2.9c-0.5,0.6-1.3,1-1.6,0.8s0.2-0.9,0.1-2.7v-0.1c-0.1-1.3-0.8-2.4-1.3-2.9c-0.7-0.6-1.4-0.4-3.3-0.4
			c-4.4,0.2-4.5-0.5-5.6,0.2c-0.9,0.5-2.1,2.1-2.8,5.1c-0.2,0.9-0.5,2-0.6,3.5h0.6c-0.2,1.1,0.2,2.1,0.9,2.7
			c0.8,0.6,1.8,0.6,2.6,0.2c1.2-0.6,1-2.2,2-2.5c0.7-0.2,1.6,0.2,1.9,0.8s-0.1,1.1-0.4,3.7c-0.1,0.5-0.1,0.8,0.1,1.1
			c0.4,0.6,1.3,0.2,2.1,0.6c1.4,0.7,1.6,3.1,1.6,3.8c0.1,1.5-0.3,2.7-0.6,3.5c0.8,0.2,1.8,0.5,2.9,1c1.3,0.6,2.3,1.2,3.2,1.9
			c0.3-0.1,0.7-0.2,1.1-0.4c2.5-0.7,4.8-0.6,4.8-0.6c1,0,5.1,0.1,7.7,2.4c1.6,1.4,2.7,3.8,3,4.5c0.5,1,0.6,1.5,1.4,2.1
			c1.4,1.1,3.4,1.2,4,1.3c1.8,0.1,2.4-0.3,3.2,0.2c0.9,0.5,1.1,1.4,1.2,1.9c0.4,1.6-0.5,2.1-0.2,3.5s1.4,2.3,1.9,2.8
			c1.4,1.1,3,1.6,4.3,2c0.4,0.1,0.8,0.2,1,0.3c1.6,0.4,2.8,0.5,3.2,0.6c2.8,0.3,5.6,0.6,6.7,2.1C100.9,159,98,165.2,97.8,165.6z"/>
		<path class="st5" d="M109.5,21.6c0.5,1.3,0.9,2.3,1.2,3s0.5,1.2,0.3,1.5s-0.9,0.3-1.3,0.1c-0.3-0.1-0.5-0.3-0.7-0.5
			c-0.2-0.1-0.3-0.3-0.4-0.3c-0.5-0.4-1.3-1-1.4-0.9s0.4,1,1.1,1.6c0.4,0.3,1,0.9,2,1.1c0.5,0.1,0.9,0.1,1.1,0.4c0,0,0.1,0.1,0.1,1
			c-0.3,0.7-0.6,0.9-0.8,1c-0.5,0.1-0.9-0.5-1.4-0.3c-0.3,0.1-0.3,0.3-0.7,0.6c-0.5,0.4-0.9,0.5-1.3,0.6c-0.8,0.4-0.8,1.1-1.7,2.2
			c-0.9,1.2-1.2,0.8-2.3,2.2c-0.2,0.3-0.3,0.4-1.6,2.4c-0.2,0.3-0.9,1.4-1.1,1.7c-0.5,0.4-1.3,0.7-2.1,0.7c-1.1,0-1.4-0.6-2.7-0.7
			c-1-0.1-0.9,0.2-2.4,0.2c-1.7,0.1-2-0.3-3,0c-0.9,0.3-1.5,0.8-1.8,1c-1.3,1.1-1.2,2.2-1.9,2.3c-0.7,0.1-1.4-0.7-1.7-1.4
			c-0.4-0.9-0.3-1.7,0-2.9c0.2-0.8,0.5-1.9,1.2-3.1c0.8-0.8,1.5-1.6,2.3-2.4c0.5-0.1,1.2-0.2,1.6-0.8c0.4-0.5,0.3-0.8,0.7-1.9
			c0.1-0.3,0.5-1,1.3-2.4c0.6-1.1,0.7-1.3,0.7-1.8c0-0.9-0.6-1.4-0.7-1.5c-0.6-0.6-1.4-0.7-1.6-0.7c0.5-1,1-2,1.4-3.1
			c0.9-0.2,1.9-0.4,2.8-0.6c0.2,0.3,0.6,0.7,1,0.7c0.6,0,0.7-0.7,1.5-1c0.6-0.3,0.8,0.1,1.9-0.1c1.1-0.1,1.1-0.5,1.8-0.4
			s0.7,0.4,2,1.2c1,0.6,1.8,0.9,2.3,1.1c0.7,0.2,1,0.3,1.5,0.3c0.7-0.1,1-0.4,1.7-0.4C108.8,21.4,109.3,21.5,109.5,21.6z"/>
		<path class="st5" d="M101.4,41c0.9,0.6,1.8,1.2,2.7,1.8c-0.2,0.4-0.4,0.8-0.5,1.2c-0.8,0.6-1.4,0.5-1.5,0.5s-0.3-0.1-0.8-0.4
			s-0.9-0.5-1.1-0.7c-0.4-0.2-0.4-0.5-0.5-0.6c-0.2-0.6,0.4-1.2,0.9-1.5C100.9,41.1,101.2,41,101.4,41z"/>
		<path class="st5" d="M153,83.8c0.2-0.4,1-0.7,1.5-0.5c0.4,0.1,0.4,0.5,0.9,1.2s0.9,1.1,1.5,1.7c0.7,0.6,1.2,0.8,1.5,1.5
			c0.1,0.2,0.2,0.6,0.2,1.1c-0.1,0.7-0.6,1.1-1.2,1.7c-0.8,0.7-1,0.9-1.2,0.9c-0.3,0-0.8-0.1-1-0.4c-0.1-0.2-0.1-0.3-0.1-0.4
			c0-0.9,0.7-1.4,0.7-2c0-0.8-1-1.6-1.3-1.4c-0.3,0.1,0.1,0.9-0.4,1.6c-0.4,0.6-1.3,1-1.7,0.8c-0.3-0.2-0.3-0.7-0.2-1
			c0-0.1,0.1-0.7,0.6-1.3c0.6-0.7,1-0.6,1.1-1C154.2,85.3,152.7,84.5,153,83.8z"/>
		<path class="st5" d="M160.2,106.2c0-0.1,0-0.3,0-0.4s0-0.3,0-0.4c-1.7,0.7-2.6,1.1-2.7,0.8c-0.2-0.3,0.6-0.8,0.4-1.4
			c-0.2-0.4-0.8-0.6-1.4-0.7l0.5-0.8c0,0,0.1-0.9,0-1.3c-0.1-1.4-2-1.9-1.9-2.6c0.1-0.4,1-0.4,2.7-0.9c1-0.3,1.7-0.6,2.3-0.8
			c0.2-0.8,0.2-1.8-0.3-2.6c-0.9-1.3-2.8-1.2-2.9-1.9c0-0.3,0.4-0.6,1.2-1.1c1.4-1,1.7-0.9,2.1-1.4c0.5-0.7,0-1.1,0.5-2.4
			c0.2-0.7,0.4-0.7,1.2-2.3c0.6-1.2,1-1.8,1-2.2c0.3-1.8-1.1-3.4-0.9-3.5c0.2-0.1,1.1,1.7,2.9,2.2c1.1,0.3,2.3,0,3.1-0.6
			c0.6-0.5,0.4-0.7,1.4-2.3c0.7-1.2,1.2-1.8,2.1-3.6c0.2-0.3,0.4-0.8,0.5-1.6c0.1-0.4,0.2-1.5-0.3-1.9c-0.3-0.3-0.7-0.1-2,0.1
			c-1.6,0.3-2.3,0.5-2.5,0.4c-1.8-0.7-1.3-7.3-1.4-7.3c-0.1,0,0.1,1.4-0.7,2.9l0,0c-0.8,1.6-1.2,1.8-1.4,2.3c-0.2,0.7,0.2,1.5,1,2.9
			c0.9,1.6,1.4,1.5,1.8,2.5c0.7,1.9-0.3,4.1-0.9,4.1c-0.6,0-0.9-2.4-1.4-2.4s-0.5,1.7-1,1.7c-0.4,0-0.5-1.3-1.6-2.2
			c-0.4-0.3-1.1-0.7-1.3-0.5c-0.3,0.3,1.1,1.8,0.6,2.6c-0.2,0.4-1,0.5-1.5,0.3c-0.6-0.2-0.8-0.8-1.7-2.3c-1.2-1.9-1.7-2.1-1.7-2.9
			c0-0.7,0.4-1.2,1-1.9c1.2-1.4,1.9-1.1,2.3-2c0.4-0.8-0.2-1.3-0.5-3.5c-0.1-0.7-0.3-2.1-0.1-3.7c0.2-1.9,0.8-3.3,1.1-4
			c0.5-1.1,0.8-1.9,1.5-2.6c2.1-2.4,5.5-2.3,5.7-2.3c0.6,0,1,0,6.7,2.4c1.8,0.7,2.8,1.2,3.8,0.8c1.4-0.5,2.3-2.1,2.2-3.6
			c0-0.8-0.3-1.4-0.8-2.2c-1.7-3-2.5-4-3.3-5.6c-1.1-2.1-2.1-3.8-1.8-5.8c0.1-0.6,0.2-0.6,1.8-3.9c1.3-2.8,1.6-3.5,2.2-3.5
			c0.7,0,1.4,1.4,1.7,2.7c0.5,2.5-1.4,3.3-1.5,6.3c0,0.7-0.1,3.8,2,5.6c1.5,1.3,3.2,1.3,3.6,1.3c0.6,0,2.1,0,2.8-1.1
			c0.3-0.5,0.3-1,0.3-1.6c-0.1-2.4-1.3-3.7-0.9-4.4c0.4-0.6,1.6-0.4,1.7-0.4c0.6,0.1,1.2,0.4,1.7,0.8c0.2,0.8,0.5,1.7,0.9,2.6
			c0.3,0.6,0.6,1.1,0.7,1.3c0.7,1.1,1.8,2.4,1.9,2.3c0.3-0.2-1.2-4.4-3.5-6.2c-0.1-0.7-0.2-1.3-0.3-1.9c1.9-0.2,2-0.2,2-0.2
			c1.1-0.1,2.1,0.2,2.9,0.4c0.3,0.2,0.5,0.3,0.8,0.4c0,0,0.4,0.1,0.5,0.2c-0.2-0.1-0.7-0.4-1.3-0.6c-1.2-2.2-2.4-4.9-1.8-5.4
			c0.4-0.3,1.7,0,7.1,5c6.4,6,11.4,10.6,16.6,18.8c6.4,9.9,9,18.6,11.2,25.8c0,0,2.4,8,5,23.7c0.1,0.4,0.2,1.2,0.3,2.8
			c0.2,2,0.3,2.7,0.1,3.7c-0.1,0.3-0.4,2.1-0.9,2.1c-0.7,0-0.7-3-2.4-6.4c-0.2-0.5-1.2-2.4-1.2-2.4c-0.4-0.6-0.9-1.1-1.1-1.3
			c-1.4-1.7-1.4-1.7-1.6-1.9c-1.1-1.8-0.9-2.7-1.7-3c-0.8-0.4-1.4,0.7-2.4,0.4c-1.1-0.3-1-1.5-2.2-2.1c-0.8-0.4-1.6-0.2-2.8,0.1
			c-2.2,0.6-2.9,1.7-4.1,1.3c-0.7-0.3-0.6-0.7-1.3-0.9c-1-0.2-1.4,0.7-2.8,0.7c-0.9,0-1.6-0.3-2-0.5c-1.4-0.7-1.6-1.5-2.5-1.6
			c-0.7-0.1-1.6,0.4-1.6,0.9c-0.1,0.6,0.7,1.1,2.1,2.1c1.7,1.2,2.6,1.4,2.8,1.4c0.5,0.1,1.2,0.2,1.7-0.3c0.5-0.4,0.3-0.8,0.7-1.1
			c0.7-0.5,2.1,0.2,2.9,1c0.3,0.2,1,0.9,1.2,2c0.1,0.4,0.1,1.1-0.8,3.2c-0.9,1.9-1.3,2.9-2.3,3.9s-1,0.5-2.7,2
			c-1.1,0.9-1.7,1.7-2.5,1.5c-0.5-0.1-0.8-0.4-1.1-0.7c0,0-1.4-1.8-2.4-3.1c-0.9-1.1-2.3-2.7-4.2-4.5c-0.9-0.9-1.7-1.5-2.2-1.8
			s-0.8-0.6-1.1-0.8c-1.6-1.1-3.3-2.2-4.3-2.9c0.3-0.1,0.9-0.2,1.1-0.6c0.3-0.4,0.1-0.8,0-1.5c-0.4-2,0-2.7-0.5-3.2
			c-0.3-0.2-0.7-0.2-1.4-0.2c-1,0.1-1.6,0.3-3.4,0.8c-1.2,0.3-1.5,0.4-1.9,0.2s-0.4-0.5-0.9-1.4c-0.7-1.3-1.1-2.1-1.7-2.4
			c-0.3-0.1-0.9-0.3-1.9,0.5c0.2,0.6,0.4,1.3,0.8,2s0.8,1.2,1.1,1.7c-0.1,0.3-0.3,0.9-0.8,1c-0.3,0-0.6-0.2-1.4-1.4
			c-0.9-1.4-1-1.8-1.4-2.4c-0.7-1-1.6-1.5-2.9-2.1c-1.6-0.9-3.9-1.6-4.1-1.2c-0.2,0.4,1.2,1.5,1.5,1.7c1.2,1,1.8,0.9,2.8,1.9
			c0.7,0.7,1.2,1.5,1,1.7s-0.6-0.1-0.9,0.2c-0.3,0.2-0.2,0.6-0.2,1c-0.1,1-1.1,1.9-1.5,1.7c-0.5-0.2,0.6-2.5-0.3-3.2
			c-0.4-0.3-0.6,0.1-1.3-0.1c-1.7-0.4-1.9-2.3-3.2-2.4c-0.8-0.1-0.7,0.7-2.5,1.5c-1.1,0.5-1.8,0.5-1.9,1c-0.1,0.7,1.1,1.2,1.1,2
			c0,0.4-0.5,1-2.5,1.4C161.6,102.7,160.9,104.4,160.2,106.2z"/>
		<path class="st5" d="M58.3,40.1c2.4,0.2,3.2-0.2,3.4-0.6s0.1-0.8,0.4-0.9c0.3-0.1,0.5,0.2,1.5,0.7c1.2,0.7,1.8,0.9,2.1,1.6
			c0,0,0,0.1,0,0.2c0.1,0.6-0.4,1.3-0.9,1.6c-0.9,0.4-2.3-0.2-3.1-0.5c-0.9-0.4-2-1.1-2.7-0.8l0,0c-0.6,0.3-0.9,0.9-1,1.1
			c-0.7,1.9-1.1,2.8-1.4,2.8c-0.4,0-0.9-0.8-1-1.7c-0.1-1.1,0.6-1.9,0.4-2c-0.2-0.1-1.1,0.5-4.1,3.2c0.4,0.6,0.9,1.3,1.3,1.9
			c-0.2,0-0.4,0-0.7,0c-0.4,0-0.6-0.1-0.9-0.1c-0.8-0.1-1.2-0.1-1.4,0c-0.1,0.2,0.4,0.5,1,1.5c0.5,0.9,0.8,1.7,1.3,1.8
			c0.3,0,0.4-0.2,1-0.4c1-0.3,2,0.2,2.4,0.4c0.1,0.1,0.5,0.2,0.9,0.5c0.6,0.4,0.8,0.8,1.4,1c0.1,0,0.3,0.1,0.6,0.1
			c1.2,0.1,2-0.3,2.9-0.4c1.8-0.2,2.8,0.9,3.3,0.5c0.4-0.3,0.1-1-0.1-1.6c-0.7-2.3-0.2-5.5,1.8-6.8c1-0.7,2.3-0.7,2.6-0.7
			c2,0,2.9,1,4.3,0.6c0.6-0.2,1.3-0.6,1.3-1c0-0.9-2.6-1.4-2.5-1.7s2,0.4,3.7-0.1c2-0.6,1.7-2.2,4.1-4.4c1.3-1.2,2.9-2,5-3.2
			c1.8-1,3.1-1.5,3.6-2.8c0.1-0.2,0.4-1.1,0-2c-0.2-0.4-0.5-0.6-0.8-0.9s-1-0.7-1.9-0.9c-4.7,1.3-10.5,3.3-16.7,6.7
			C64.9,35.3,61.2,37.8,58.3,40.1z"/>
		<g>
			<path class="st6" d="M177.3,218.1c-14.8,5-30,7.5-45.3,7.5c-17.3,0-33.2-2.6-47.5-7.9s-26.7-12.5-37.1-21.8s-18.5-20.4-24.2-33.4
				c-5.7-13-8.6-27.1-8.6-42.3s2.9-29.3,8.6-42.3S37,53.8,47.4,44.5s22.8-16.6,37.2-21.8c14.4-5.3,30.2-7.9,47.3-7.9
				c14.3,0,28.2,2.1,41.8,6.3c13.5,4.2,25.1,10.7,34.6,19.3l-4.6,4.5c-4.5-4.1-9.7-7.7-15.4-10.8s-11.8-5.7-18.2-7.7
				c-6.4-2.1-12.8-3.6-19.3-4.5s-12.8-1.4-18.9-1.4c-16.5,0-31.5,2.6-45,7.7c-13.5,5.2-25.1,12.3-34.8,21.3
				c-9.6,9-17.1,19.6-22.4,31.7s-8,25.1-8,39s2.6,26.9,7.8,39s12.6,22.7,22.3,31.7c9.6,9,21.2,16.1,34.8,21.3
				c13.5,5.2,28.7,7.7,45.3,7.7c14.3,0,28.4-2.4,42.4-7.2s25.5-12,34.6-21.6l5.2,4.2C204.4,205.6,192.1,213.1,177.3,218.1z"/>
		</g>
		<g>
			<path class="st6" d="M196.7,169.6c0,3.9-0.7,7.5-2.2,10.8s-3.5,6.1-6.1,8.5s-5.6,4.3-9.2,5.6c-3.5,1.4-7.3,2-11.5,2
				s-7.9-0.7-11.5-2c-3.5-1.4-6.6-3.2-9.2-5.6s-4.6-5.2-6.1-8.5s-2.2-6.9-2.2-10.8s0.7-7.5,2.2-10.8s3.5-6.1,6.1-8.5
				s5.6-4.3,9.2-5.6c3.5-1.4,7.3-2,11.5-2s7.9,0.7,11.5,2c3.5,1.4,6.6,3.2,9.2,5.6c2.6,2.4,4.6,5.2,6.1,8.5S196.7,165.7,196.7,169.6
				z M190.8,169.6c0-3-0.5-5.8-1.6-8.5c-1-2.7-2.6-5.1-4.5-7.1c-2-2-4.4-3.7-7.2-4.9s-6-1.8-9.6-1.8s-6.7,0.6-9.6,1.8
				c-2.8,1.2-5.3,2.8-7.2,4.9s-3.5,4.4-4.5,7.1c-1,2.7-1.6,5.5-1.6,8.5s0.5,5.8,1.6,8.5c1,2.7,2.6,5.1,4.5,7.1c2,2,4.4,3.6,7.2,4.8
				s6,1.8,9.6,1.8c3.5,0,6.7-0.6,9.6-1.8c2.8-1.2,5.3-2.8,7.2-4.8c2-2,3.5-4.4,4.5-7.1C190.3,175.5,190.8,172.6,190.8,169.6z"/>
			<path class="st6" d="M235.9,186.4L235.9,186.4l18.6-42.5h8.6v51.3h-5.6v-44.6h-0.2l-20,44.6h-3l-20-44.6h-0.2v44.6h-5.6V144h8.6
				L235.9,186.4z"/>
			<path class="st6" d="M305.3,186.4L305.3,186.4l18.6-42.5h8.6v51.3h-5.6v-44.6h-0.2l-20,44.6h-3l-20-44.6h-0.2v44.6h-5.6V144h8.6
				L305.3,186.4z"/>
			<path class="st6" d="M367.7,196.6c-4.2,0-7.6-0.7-10.3-2c-2.7-1.3-4.8-3-6.3-5c-1.6-2-2.6-4.2-3.2-6.6c-0.6-2.4-0.9-4.6-0.9-6.8
				V144h5.6v31.6c0,2.1,0.3,4.1,0.8,6c0.5,2,1.4,3.7,2.5,5.2c1.2,1.5,2.7,2.8,4.7,3.7c1.9,0.9,4.3,1.4,7.1,1.4
				c2.8,0,5.2-0.5,7.1-1.4s3.5-2.2,4.7-3.7s2-3.3,2.5-5.2c0.5-2,0.8-4,0.8-6V144h5.6v32.2c0,2.1-0.3,4.4-0.9,6.8
				c-0.6,2.4-1.7,4.6-3.2,6.6c-1.6,2-3.7,3.7-6.4,5C375.2,195.9,371.8,196.6,367.7,196.6z"/>
			<path class="st6" d="M442.1,187.6h0.2V144h5.6v51.3h-7l-32.3-44.1h-0.2v44.1h-5.6V144h7L442.1,187.6z"/>
			<path class="st6" d="M468.3,195.3h-5.6V144h5.6V195.3z"/>
			<path class="st6" d="M500.8,195.3h-5.6v-46.7h-18.6V144h42.7v4.6h-18.6L500.8,195.3L500.8,195.3z"/>
			<path class="st6" d="M533.3,195.3h-5.6V144h5.6V195.3z"/>
			<path class="st6" d="M553.6,190.6h29.7v4.6H548V144h34.4v4.6h-28.7v17.6h26.9v4.6h-26.9v19.8L553.6,190.6L553.6,190.6z"/>
			<path class="st6" d="M621.2,152.2c-1.2-1.5-2.7-2.8-4.6-3.7c-1.9-0.9-4.2-1.4-6.8-1.4c-1.4,0-2.7,0.2-4.1,0.6
				c-1.4,0.4-2.7,1-3.8,1.8s-2.1,1.8-2.8,3s-1.1,2.6-1.1,4.3c0,1.6,0.3,3,1,4.1s1.6,2,2.7,2.7c1.1,0.7,2.4,1.4,3.8,1.8
				c1.4,0.5,2.9,1,4.5,1.4c1.9,0.6,3.9,1.2,5.8,1.9c2,0.7,3.7,1.6,5.3,2.6c1.6,1.1,2.8,2.5,3.8,4.1c1,1.7,1.5,3.8,1.5,6.3
				c0,2.6-0.5,4.8-1.6,6.6c-1.1,1.9-2.4,3.4-4.1,4.6c-1.7,1.2-3.6,2.1-5.8,2.7c-2.2,0.6-4.3,0.9-6.5,0.9c-1.7,0-3.3-0.2-5-0.5
				s-3.3-0.8-4.8-1.4c-1.5-0.6-2.9-1.4-4.2-2.4s-2.5-2.1-3.4-3.3l4.9-3.3c1.2,1.8,2.9,3.4,5,4.6c2.2,1.2,4.7,1.8,7.6,1.8
				c1.4,0,2.8-0.2,4.3-0.6c1.5-0.4,2.8-1,4-1.9c1.2-0.8,2.1-1.9,2.9-3.1c0.8-1.2,1.1-2.7,1.1-4.3c0-1.8-0.4-3.3-1.1-4.5
				c-0.8-1.2-1.8-2.2-3-3c-1.3-0.8-2.7-1.5-4.3-2s-3.3-1.1-5.1-1.6s-3.6-1.1-5.4-1.8c-1.8-0.7-3.4-1.6-4.8-2.6
				c-1.4-1.1-2.5-2.4-3.4-4s-1.3-3.6-1.3-5.9c0-2.5,0.5-4.6,1.6-6.4c1.1-1.8,2.5-3.3,4.2-4.4c1.7-1.2,3.6-2,5.7-2.5
				c2.1-0.5,4.1-0.8,6.2-0.8c3.8,0,7,0.6,9.6,1.8c2.7,1.2,4.7,2.7,6,4.4L621.2,152.2z"/>
		</g>
		<path class="st3" d="M123.3,127.8h-3.5V114l-13-18.1h4.4l10.4,15.4l10.5-15.4h4.1l-13,18.1L123.3,127.8L123.3,127.8z"/>
		<path class="st3" d="M165.5,123.1L165.5,123.1l0.1-27.2h3.5v31.9h-4.4l-20.2-27.4h-0.1v27.4h-3.5V95.9h4.4L165.5,123.1z"/>
		<path class="st3" d="M178.1,127.8h-3.9l15-31.9h3.4l14.9,31.9h-3.9l-3.8-8.4h-18L178.1,127.8z M183.2,116.4h15.3l-7.7-16.9
			L183.2,116.4z"/>
		<path class="st3" d="M212.7,95.9h9.8c1.8,0,3.4,0.2,4.8,0.5s2.7,0.9,3.7,1.6s1.8,1.6,2.4,2.7c0.6,1.1,0.8,2.3,0.8,3.8
			c0,1.4-0.3,2.7-0.9,3.8s-1.4,2-2.4,2.7s-2.3,1.2-3.7,1.6c-1.5,0.4-3.1,0.5-4.8,0.5h-6.2v14.8h-3.5L212.7,95.9L212.7,95.9z
			 M216.2,110.2h6c2.8,0,4.9-0.5,6.3-1.5s2.2-2.4,2.2-4.3c0-2-0.7-3.4-2.2-4.3s-3.6-1.4-6.3-1.4h-6V110.2z"/>
		<path class="st3" d="M252,127.8h-3.5v-29h-11.6v-2.9h26.8v2.9H252V127.8z"/>
		<path class="st3" d="M272.3,127.8h-3.5V95.9h3.5V127.8z"/>
		<path class="st3" d="M310.8,122.6c-0.6,0.8-1.3,1.6-2.1,2.3c-0.8,0.7-1.8,1.4-2.9,1.9s-2.3,1-3.6,1.3c-1.3,0.3-2.8,0.5-4.3,0.5
			c-2.6,0-5-0.4-7.3-1.3c-2.2-0.8-4.1-2-5.7-3.5s-2.9-3.2-3.8-5.3c-0.9-2-1.3-4.3-1.3-6.7s0.5-4.7,1.4-6.7s2.2-3.8,3.8-5.3
			c1.6-1.5,3.5-2.6,5.7-3.5c2.2-0.8,4.6-1.3,7.2-1.3c1.3,0,2.5,0.1,3.8,0.4c1.2,0.2,2.4,0.6,3.5,1s2.1,1,2.9,1.6
			c0.9,0.6,1.6,1.3,2.2,2.1l-2.9,2c-0.4-0.5-0.8-1-1.4-1.5s-1.3-1-2.1-1.4c-0.8-0.4-1.7-0.7-2.7-0.9s-2-0.4-3.1-0.4
			c-2.3,0-4.3,0.4-6.1,1.1c-1.8,0.7-3.3,1.8-4.5,3c-1.2,1.3-2.2,2.7-2.8,4.4c-0.7,1.7-1,3.4-1,5.3s0.3,3.6,1,5.3s1.6,3.1,2.9,4.4
			c1.2,1.3,2.8,2.3,4.5,3c1.8,0.7,3.8,1.1,6,1.1c2,0,3.9-0.4,5.7-1.1c1.8-0.7,3.3-2,4.5-3.6L310.8,122.6z"/>
		<path class="st3" d="M110.7,126.2c0,2.9-0.6,5.5-1.7,7.8c-1.2,2.3-2.7,4.2-4.6,5.8s-4.2,2.8-6.8,3.6s-5.3,1.2-8.2,1.2
			c-4.4,0-8.4-0.8-12-2.3c-3.1-1.3-5.8-3-8-5.2c-0.7,0.5-1.4,1.1-2.1,1.6l0.7-5.2l5.4,0.7c-0.7,0.5-1.4,1.1-2.1,1.6
			c2.3,2.1,4.8,3.7,7.7,4.9c3.3,1.3,6.8,2,10.4,2c2.6,0,5-0.4,7.3-1.1c2.3-0.7,4.4-1.8,6.2-3.2s3.2-3.1,4.2-5.1s1.5-4.4,1.5-7
			s-0.6-4.9-1.7-6.7c-1.1-1.8-2.6-3.4-4.4-4.7c-1.8-1.3-3.8-2.4-6.1-3.2c-2.3-0.9-4.6-1.7-6.9-2.4c-2.9-0.9-5.6-1.9-8-2.9
			s-4.5-2.2-6.3-3.7s-3.1-3.2-4.1-5.2s-1.4-4.5-1.4-7.4c0-2.8,0.6-5.4,1.7-7.6c1.2-2.2,2.7-4.1,4.7-5.6s4.3-2.7,6.9-3.5
			s5.4-1.2,8.3-1.2c3.6,0,7,0.7,10.2,2c2.6,1.1,4.8,2.5,6.6,4.3c0.7-0.6,1.4-1.1,2.1-1.7l-0.6,5.2l-5.4-0.6c0.7-0.5,1.4-1.1,2.1-1.6
			c-1.6-1.6-3.5-2.9-5.8-3.8c-2.9-1.3-6-1.9-9.4-1.9c-2.4,0-4.7,0.3-7,1c-2.3,0.6-4.4,1.6-6.2,3c-1.8,1.3-3.3,3-4.5,5
			c-1.1,2-1.7,4.4-1.7,7.1s0.5,4.9,1.5,6.7s2.3,3.4,4,4.7s3.5,2.4,5.6,3.2s4.2,1.6,6.4,2.3c3,1,5.8,2,8.3,3c2.6,1,4.8,2.2,6.8,3.6
			c1.9,1.4,3.5,3.2,4.6,5.2C110.2,120.9,110.7,123.3,110.7,126.2z"/>
	</g>
</g>
</svg>
